# xmcd
#
# Track frame offsets:
#	150
#	24156
#	40728
#	54802
#	67372
#	85066
#	98833
#	115588
#	126365
#	154392
#	169140
#	192624
#	218017
#	236837
#	254325
#	265857
#	284710
#	297023
#	315020
#
# Disc length: 4499 seconds
#
# Revision: 1
# Processed by: cddbd v1.5.2PL0 Copyright (c) Steve Scherf et al.
# Submitted via: audiograbber 1.83.01
#
DISCID=10119113
DTITLE=Steve Earle - Magnetised Motherfuckers CD2
DYEAR=2007
DGENRE=Country
TTITLE0=Sunday Morning Coming Down
TTITLE1=Love Match
TTITLE2=High Fashion Queen
TTITLE3=Breed
TTITLE4=Time Has Come Today
TTITLE5=The Galway Girl
TTITLE6=Our Lady Of The Highways
TTITLE7=The Truth
TTITLE8=Nebraska
TTITLE9=Little Sister
TTITLE10=State Trooper
TTITLE11=Dead Flowers
TTITLE12=Copperhead Road
TTITLE13=I Ain't Ever Satisfied
TTITLE14=Guitar Town
TTITLE15=When Will We Be Married
TTITLE16=Hard-Core Troubadour
TTITLE17=White Freight Liner Blues
TTITLE18=Ellis Unit One
EXTD=
EXTT0=
EXTT1=
EXTT2=
EXTT3=
EXTT4=
EXTT5=
EXTT6=
EXTT7=
EXTT8=
EXTT9=
EXTT10=
EXTT11=
EXTT12=
EXTT13=
EXTT14=
EXTT15=
EXTT16=
EXTT17=
EXTT18=
PLAYORDER=
